<?xml version="1.0" encoding="UTF-8" standalone="no"?>
<svg
   xmlns:dc="http://purl.org/dc/elements/1.1/"
   xmlns:cc="http://creativecommons.org/ns#"
   xmlns:rdf="http://www.w3.org/1999/02/22-rdf-syntax-ns#"
   xmlns:svg="http://www.w3.org/2000/svg"
   xmlns="http://www.w3.org/2000/svg"
   viewBox="0 0 595.27557 841.88977"
   id="svg19"
   height="841.88977"
   width="595.27557"
   version="1.1">
  <metadata
     id="metadata25">
    <rdf:RDF>
      <cc:Work
         rdf:about="">
        <dc:format>image/svg+xml</dc:format>
        <dc:type
           rdf:resource="http://purl.org/dc/dcmitype/StillImage" />
      </cc:Work>
    </rdf:RDF>
  </metadata>
  <defs
     id="defs23" />
  <g
     id="Layer1000">
    <path
       id="path2"
       style="fill:#565757;fill-rule:evenodd"
       d="m 181.3403,150.3098 v -7.3661 h -1.1567 l -2.1839,4.5833 -2.2274,-4.5833 h -1.1573 v 7.3661 h 1.1573 v -4.9243 l 1.7987,3.59 h 0.8569 l 1.7557,-3.59 v 4.9243 z m 7.9475,0 v -1.0034 h -3.7161 v -2.2138 h 3.1697 v -0.9933 h -3.1697 v -2.1516 h 3.7161 v -1.004 h -4.8728 v 7.3661 z m 8.0963,-3.7348 c 0.002,-0.267 0.002,-0.5322 -0.003,-0.7964 -0.007,-0.2636 -0.03,-0.522 -0.073,-0.7743 -0.0413,-0.2511 -0.1176,-0.4915 -0.2268,-0.7223 -0.1075,-0.2297 -0.2641,-0.4446 -0.4678,-0.6448 -0.2426,-0.2331 -0.5322,-0.4067 -0.8693,-0.5204 -0.3354,-0.1159 -0.7037,-0.1731 -1.1013,-0.1731 h -2.6776 v 7.3661 h 2.6776 c 0.3976,0 0.7659,-0.0566 1.1013,-0.1719 0.3371,-0.1143 0.6267,-0.2879 0.8693,-0.521 0.2037,-0.2002 0.3603,-0.4202 0.4678,-0.6623 0.1092,-0.2393 0.1855,-0.4932 0.2268,-0.7585 0.043,-0.2636 0.0662,-0.5351 0.073,-0.8089 0.006,-0.2743 0.006,-0.5446 0.003,-0.8122 z m -1.1562,0 c 0.002,0.3383 -0.004,0.6499 -0.0181,0.9367 -0.0124,0.2839 -0.0497,0.5362 -0.1069,0.7551 -0.0593,0.2206 -0.1521,0.3999 -0.2822,0.543 -0.1606,0.1708 -0.3479,0.2947 -0.5639,0.3761 -0.215,0.0809 -0.4593,0.1205 -0.7319,0.1205 h -1.4033 v -5.3587 h 1.4033 c 0.2726,-0.002 0.5169,0.039 0.7319,0.1205 0.216,0.0797 0.4033,0.2053 0.5639,0.3756 0.1301,0.1419 0.2229,0.3122 0.2822,0.5158 0.0572,0.2031 0.0945,0.4378 0.1069,0.707 0.0142,0.267 0.0198,0.5707 0.0181,0.9084 z m 8.632,-3.6313 h -1.2642 l -1.595,3.2382 -1.5956,-3.2382 h -1.2636 l 2.2805,4.3349 v 3.0312 h 1.1562 v -3.0312 z m 7.219,5.1625 h -1.1674 c -0.0606,0.2505 -0.1584,0.4694 -0.2964,0.6589 -0.1358,0.1878 -0.3089,0.336 -0.5176,0.4412 -0.2104,0.1069 -0.457,0.1606 -0.7392,0.1623 -0.2263,-0.002 -0.4367,-0.0401 -0.6301,-0.1176 -0.1946,-0.077 -0.3586,-0.1856 -0.4944,-0.3275 -0.0928,-0.0945 -0.1691,-0.2014 -0.2296,-0.3168 -0.0611,-0.1154 -0.1075,-0.2573 -0.1414,-0.4242 -0.034,-0.1674 -0.0572,-0.3761 -0.0696,-0.6278 -0.0142,-0.2523 -0.0192,-0.5606 -0.0192,-0.9276 0,-0.3677 0.005,-0.676 0.0192,-0.9277 0.0124,-0.2517 0.0356,-0.4604 0.0696,-0.6278 0.0339,-0.1674 0.0803,-0.3105 0.1414,-0.4259 0.0605,-0.1137 0.1368,-0.2206 0.2296,-0.3156 0.1358,-0.1414 0.2998,-0.2495 0.4944,-0.3275 0.1934,-0.0775 0.4038,-0.1171 0.6301,-0.1171 0.2822,0.002 0.5271,0.0549 0.7358,0.1623 0.2087,0.1047 0.3801,0.2529 0.5136,0.4412 0.1346,0.1895 0.2325,0.409 0.2936,0.6584 h 1.1776 c -0.0928,-0.4915 -0.2619,-0.9033 -0.5125,-1.2398 -0.25,-0.3377 -0.5622,-0.5917 -0.9389,-0.7653 -0.3767,-0.1725 -0.7992,-0.2602 -1.2692,-0.2602 -0.3977,0.002 -0.7636,0.069 -1.1013,0.2036 -0.3371,0.1341 -0.6375,0.3275 -0.901,0.5826 -0.1856,0.1793 -0.3287,0.3688 -0.4322,0.569 -0.1012,0.198 -0.1753,0.4157 -0.2177,0.6499 -0.0447,0.2347 -0.0696,0.4949 -0.0787,0.7811 -0.009,0.2862 -0.0124,0.6047 -0.0107,0.9588 -0.002,0.3535 0.002,0.6725 0.0107,0.9587 0.009,0.2862 0.034,0.5464 0.0787,0.7805 0.0424,0.2348 0.1165,0.4525 0.2177,0.6505 0.1035,0.1997 0.2466,0.3897 0.4322,0.569 0.2635,0.2551 0.5639,0.448 0.901,0.5826 0.3377,0.1346 0.7036,0.2019 1.1013,0.2042 0.3461,0 0.6714,-0.0503 0.9711,-0.1488 0.3015,-0.0961 0.5719,-0.2415 0.8106,-0.4349 0.2392,-0.1912 0.4389,-0.4276 0.6001,-0.7082 0.1606,-0.2828 0.2726,-0.6069 0.3388,-0.9745 z m 7.3039,-5.1625 h -1.2636 l -1.5962,3.2382 -1.5951,-3.2382 h -1.263 l 2.28,4.3349 v 3.0312 h 1.1567 v -3.0312 z m 7.883,7.3661 v -7.3661 h -1.1573 v 5.1732 l -3.5226,-5.1732 h -1.06 v 7.3661 h 1.1567 v -5.1828 l 3.5227,5.1828 z m 8.6964,0 -2.7947,-7.3661 h -0.9316 l -2.7959,7.3661 h 1.232 l 0.5249,-1.4791 h 3.0096 l 0.5244,1.4791 z m -2.0775,-2.431 h -2.3456 l 1.1889,-3.2693 z" />
    <path
       id="path4"
       style="fill:#565757;fill-rule:evenodd"
       d="m 247.3634,150.3132 v -0.9553 h -3.7167 v -2.1087 h 3.1709 v -0.9457 h -3.1709 v -2.0498 h 3.7167 v -0.9553 h -4.8728 v 7.0148 z m 7.4436,-1.9995 c 0,-0.3026 -0.0515,-0.5752 -0.1533,-0.8196 -0.1041,-0.2432 -0.2596,-0.4502 -0.4678,-0.6193 -0.1057,-0.0888 -0.2234,-0.1657 -0.3552,-0.2313 -0.1301,-0.0657 -0.2839,-0.1233 -0.4576,-0.1714 -0.1725,-0.0475 -0.3784,-0.0866 -0.6114,-0.1194 l -0.8677,-0.1182 c -0.1787,-0.0249 -0.3416,-0.0656 -0.4898,-0.1216 -0.1459,-0.056 -0.2692,-0.125 -0.3676,-0.2036 -0.1013,-0.0837 -0.1742,-0.1821 -0.2206,-0.2919 -0.0464,-0.1108 -0.0685,-0.2302 -0.0685,-0.358 0,-0.2093 0.0543,-0.396 0.1612,-0.5605 0.1069,-0.1641 0.2636,-0.2936 0.4706,-0.3886 0.2071,-0.0945 0.461,-0.1437 0.7602,-0.1448 0.2144,-0.002 0.4175,0.0147 0.6132,0.0475 0.1923,0.0339 0.3761,0.0905 0.5509,0.1691 0.1731,0.0803 0.3393,0.1872 0.4966,0.3247 l 0.7387,-0.6697 c -0.2161,-0.1867 -0.4429,-0.3383 -0.6799,-0.4565 -0.2375,-0.1176 -0.4949,-0.203 -0.7715,-0.2596 -0.276,-0.0554 -0.582,-0.082 -0.9157,-0.082 -0.3954,0.002 -0.7529,0.0509 -1.0674,0.1499 -0.3133,0.0984 -0.5803,0.2392 -0.8009,0.4214 -0.22,0.1827 -0.3891,0.3993 -0.5051,0.6504 -0.1165,0.2512 -0.1736,0.5306 -0.1759,0.8377 0,0.2856 0.047,0.5402 0.138,0.7619 0.0934,0.2234 0.2325,0.4152 0.4192,0.5781 0.1662,0.1425 0.3716,0.2624 0.6148,0.358 0.2421,0.095 0.5209,0.164 0.8314,0.2036 l 0.8994,0.1182 c 0.1482,0.0193 0.2737,0.0408 0.3733,0.0651 0.1018,0.0254 0.1872,0.0566 0.2602,0.0928 0.0718,0.0361 0.1397,0.082 0.2019,0.1374 0.1018,0.0837 0.1765,0.1889 0.2268,0.3122 0.0498,0.125 0.073,0.2625 0.073,0.4174 0,0.2263 -0.0622,0.4203 -0.1872,0.5809 -0.1233,0.159 -0.3021,0.2812 -0.5351,0.3649 -0.2336,0.0854 -0.5181,0.1278 -0.8518,0.1278 -0.2602,0.002 -0.504,-0.0181 -0.728,-0.0588 -0.2274,-0.0413 -0.4412,-0.112 -0.6431,-0.2104 -0.1997,-0.0973 -0.3925,-0.2314 -0.5781,-0.4005 l -0.7709,0.6991 c 0.2404,0.2251 0.4983,0.4056 0.7692,0.5419 0.271,0.1369 0.564,0.2353 0.8818,0.2958 0.3179,0.0605 0.6675,0.0899 1.0476,0.0888 0.4016,0 0.7681,-0.0481 1.1012,-0.1397 0.3337,-0.0933 0.6233,-0.2285 0.8677,-0.4056 0.2443,-0.177 0.435,-0.3942 0.5696,-0.647 0.134,-0.2546 0.2019,-0.5436 0.2036,-0.8666 z m 7.3253,-4.06 v -0.9553 h -5.3541 v 0.9553 h 2.099 v 6.0595 h 1.1556 v -6.0595 z m 7.283,6.0595 v -0.9553 h -3.7167 v -2.1087 h 3.1703 v -0.9457 h -3.1703 v -2.0498 h 3.7167 v -0.9553 h -4.8728 v 7.0148 z m 7.357,-6.0595 v -0.9553 h -5.3542 v 0.9553 h 2.0985 v 6.0595 h 1.1567 v -6.0595 z m 7.1862,-0.9553 h -1.2642 l -1.5944,3.0837 -1.5962,-3.0837 h -1.2636 l 2.2811,4.1284 v 2.8864 h 1.1562 v -2.8864 z m 7.219,4.9164 h -1.1674 c -0.0605,0.2381 -0.1584,0.4462 -0.2958,0.6272 -0.1358,0.1788 -0.3094,0.3202 -0.5181,0.4203 -0.2105,0.1018 -0.4565,0.1527 -0.7393,0.1544 -0.2263,-0.002 -0.4372,-0.0379 -0.6296,-0.1114 -0.1945,-0.0741 -0.3591,-0.1776 -0.4943,-0.3123 -0.0928,-0.0905 -0.1703,-0.1917 -0.2308,-0.3026 -0.0605,-0.1097 -0.1069,-0.2443 -0.1408,-0.4038 -0.034,-0.159 -0.0571,-0.3575 -0.0696,-0.5973 -0.0141,-0.2398 -0.0192,-0.534 -0.0192,-0.8835 0,-0.3501 0.005,-0.6437 0.0192,-0.8835 0.0125,-0.2393 0.0356,-0.4384 0.0696,-0.5973 0.0339,-0.1595 0.0803,-0.2958 0.1408,-0.4061 0.0605,-0.1081 0.138,-0.2104 0.2308,-0.3004 0.1352,-0.1346 0.2998,-0.2381 0.4943,-0.3116 0.1924,-0.0747 0.4033,-0.112 0.6296,-0.112 0.2828,0.002 0.5271,0.052 0.7359,0.1544 0.2087,0.1001 0.3795,0.241 0.5141,0.4208 0.1341,0.1799 0.2319,0.3886 0.2924,0.6267 h 1.1782 c -0.0927,-0.4677 -0.2624,-0.8603 -0.5119,-1.181 -0.2505,-0.3213 -0.5628,-0.5628 -0.9389,-0.7285 -0.3773,-0.1646 -0.7998,-0.2483 -1.2698,-0.2483 -0.3976,0.002 -0.763,0.0656 -1.1007,0.194 -0.3377,0.1284 -0.6369,0.3117 -0.9016,0.5549 -0.1855,0.1708 -0.3286,0.3518 -0.4321,0.5418 -0.1013,0.1895 -0.1743,0.396 -0.2172,0.6188 -0.0447,0.224 -0.0696,0.4717 -0.0792,0.7444 -0.008,0.2726 -0.0125,0.5758 -0.0108,0.9129 -0.002,0.3365 0.002,0.6408 0.0108,0.9129 0.01,0.2726 0.0345,0.5204 0.0792,0.7438 0.0429,0.2234 0.1159,0.4304 0.2172,0.6193 0.1035,0.1907 0.2466,0.3711 0.4321,0.5413 0.2647,0.2433 0.5639,0.4271 0.9016,0.5555 0.3377,0.1284 0.7031,0.1923 1.1007,0.194 0.3467,0 0.6714,-0.0481 0.9712,-0.1414 0.302,-0.0916 0.5712,-0.2302 0.8105,-0.414 0.2387,-0.1822 0.4395,-0.4073 0.6001,-0.6748 0.1601,-0.2693 0.2732,-0.5781 0.3388,-0.9276 z m 7.0363,2.0984 v -0.9553 h -3.5447 l 3.5447,-5.1924 v -0.8671 h -4.7331 v 0.9553 h 3.3728 l -3.5227,5.1432 v 0.9163 z m 8.3429,0 v -7.0148 H 305.4 v 4.926 l -3.5232,-4.926 h -1.06 v 7.0148 h 1.1562 v -4.9362 l 3.5238,4.9362 z m 8.697,0 -2.7953,-7.0148 h -0.9316 l -2.7958,7.0148 h 1.2319 l 0.5249,-1.409 h 3.0097 l 0.5249,1.409 z m -2.0775,-2.3151 H 310.83 l 1.1895,-3.1137 z" />
    <path
       id="path6"
       style="fill:#565757;fill-rule:evenodd"
       d="m 322.0689,150.2289 v -7.3661 h -1.1567 v 7.3661 z" />
    <path
       id="path8"
       style="fill:#565757;fill-rule:evenodd"
       d="m 332.9871,148.1288 c 0,-0.3173 -0.0515,-0.603 -0.1533,-0.8598 -0.1035,-0.2556 -0.2585,-0.4734 -0.4678,-0.6504 -0.1058,-0.0934 -0.2234,-0.1742 -0.3552,-0.2432 -0.1301,-0.0691 -0.284,-0.1296 -0.457,-0.1793 -0.1731,-0.0504 -0.3784,-0.0911 -0.612,-0.1256 l -0.8677,-0.1245 c -0.1787,-0.026 -0.3411,-0.069 -0.4887,-0.1278 -0.1471,-0.0582 -0.2704,-0.1312 -0.3682,-0.2138 -0.1018,-0.0877 -0.1748,-0.1912 -0.2212,-0.3066 -0.0463,-0.1159 -0.0678,-0.2415 -0.0678,-0.3761 0,-0.2189 0.0537,-0.4152 0.1606,-0.5882 0.1069,-0.172 0.2641,-0.3083 0.4712,-0.4084 0.207,-0.0984 0.4604,-0.1499 0.7602,-0.1516 0.2149,-0.002 0.4179,0.0158 0.6125,0.0498 0.1923,0.0362 0.3762,0.095 0.5515,0.1781 0.1731,0.0838 0.3394,0.1963 0.496,0.3411 l 0.7393,-0.7036 c -0.2161,-0.1963 -0.4429,-0.3552 -0.6804,-0.4791 -0.237,-0.1239 -0.4938,-0.2138 -0.771,-0.2726 -0.2766,-0.0589 -0.5814,-0.086 -0.9157,-0.086 -0.3959,0.002 -0.7529,0.0532 -1.0673,0.1567 -0.314,0.1035 -0.5798,0.2517 -0.8015,0.4429 -0.2195,0.1917 -0.3892,0.4196 -0.5046,0.6832 -0.1159,0.2636 -0.173,0.5566 -0.1747,0.8796 0,0.2992 0.0464,0.5667 0.1374,0.7998 0.0922,0.2341 0.2314,0.436 0.4186,0.6069 0.1663,0.1499 0.3716,0.276 0.6142,0.3761 0.2427,0.0995 0.521,0.1719 0.8321,0.2132 l 0.8993,0.1245 c 0.1482,0.0209 0.2732,0.043 0.3727,0.069 0.1019,0.026 0.1878,0.0582 0.2608,0.0967 0.0713,0.0373 0.1397,0.086 0.2019,0.1448 0.1018,0.0877 0.1771,0.1985 0.2268,0.3275 0.0498,0.1312 0.073,0.276 0.073,0.4378 0,0.2375 -0.0622,0.4417 -0.1872,0.6109 -0.1233,0.1668 -0.3021,0.2946 -0.5357,0.3823 -0.2336,0.0899 -0.5175,0.1346 -0.8518,0.1346 -0.2602,0.002 -0.5028,-0.0192 -0.7274,-0.0622 -0.2274,-0.043 -0.4412,-0.1171 -0.6431,-0.2206 -0.1996,-0.1018 -0.3931,-0.2432 -0.5786,-0.4208 l -0.7704,0.7347 c 0.2415,0.2365 0.4978,0.426 0.7687,0.5691 0.2721,0.1425 0.5645,0.2466 0.8818,0.3099 0.3184,0.0639 0.668,0.095 1.0481,0.0933 0.4016,0 0.7675,-0.0497 1.1013,-0.147 0.3337,-0.0979 0.6227,-0.2393 0.867,-0.4254 0.2455,-0.1861 0.4361,-0.414 0.5702,-0.6793 0.1335,-0.2675 0.2014,-0.5707 0.2031,-0.9106 z m 7.3259,-4.262 v -1.004 h -5.3548 v 1.004 h 2.0991 v 6.3621 h 1.1566 v -6.3621 z m 7.4005,2.6794 c 0.002,-0.3541 0,-0.6726 -0.009,-0.9593 -0.007,-0.2857 -0.0322,-0.5458 -0.073,-0.7806 -0.043,-0.2341 -0.1142,-0.4519 -0.216,-0.6499 -0.1013,-0.2002 -0.2444,-0.3897 -0.4305,-0.569 -0.2619,-0.2551 -0.5616,-0.4485 -0.897,-0.5826 -0.3377,-0.1346 -0.7088,-0.2019 -1.1166,-0.2036 -0.4067,0.002 -0.776,0.069 -1.1097,0.2036 -0.3321,0.1341 -0.6301,0.3275 -0.8926,0.5826 -0.1855,0.1793 -0.3286,0.3688 -0.4321,0.569 -0.1013,0.198 -0.1748,0.4158 -0.2172,0.6499 -0.0447,0.2348 -0.0696,0.4949 -0.0786,0.7806 -0.009,0.2867 -0.0125,0.6052 -0.0108,0.9593 -0.002,0.3535 0.002,0.6725 0.0108,0.9587 0.009,0.2862 0.0339,0.5464 0.0786,0.7806 0.0424,0.2347 0.1159,0.4524 0.2172,0.6499 0.1035,0.2002 0.2466,0.3902 0.4321,0.5695 0.2625,0.2551 0.5605,0.448 0.8926,0.5826 0.3337,0.1346 0.703,0.2019 1.1097,0.2036 0.4078,-0.002 0.7789,-0.069 1.1166,-0.2036 0.3354,-0.1346 0.6351,-0.3275 0.897,-0.5826 0.1861,-0.1793 0.3292,-0.3693 0.4305,-0.5695 0.1018,-0.1975 0.173,-0.4152 0.216,-0.6499 0.0408,-0.2342 0.0662,-0.4944 0.073,-0.7806 0.009,-0.2862 0.0107,-0.6052 0.009,-0.9587 z m -1.1566,0 c 0,0.3671 -0.005,0.6753 -0.0176,0.9259 -0.0124,0.25 -0.0339,0.4587 -0.0662,0.6244 -0.0322,0.1669 -0.0786,0.3066 -0.1374,0.4203 -0.0588,0.1154 -0.1358,0.2211 -0.2285,0.3156 -0.1358,0.1414 -0.3038,0.2517 -0.5,0.3326 -0.1963,0.0797 -0.4084,0.121 -0.6358,0.1227 -0.2262,-0.002 -0.4383,-0.043 -0.6346,-0.1227 -0.1963,-0.0809 -0.3648,-0.1912 -0.5,-0.3326 -0.0928,-0.0945 -0.1697,-0.2002 -0.2285,-0.3156 -0.0589,-0.1137 -0.1052,-0.2534 -0.1375,-0.4203 -0.0322,-0.1657 -0.0537,-0.3744 -0.0662,-0.6244 -0.0124,-0.2506 -0.0175,-0.5588 -0.0175,-0.9259 0,-0.3677 0.005,-0.6759 0.0175,-0.9265 0.0125,-0.2495 0.034,-0.4582 0.0662,-0.6233 0.0323,-0.1675 0.0786,-0.3077 0.1375,-0.4214 0.0588,-0.1154 0.1357,-0.2206 0.2285,-0.3151 0.1352,-0.1419 0.3037,-0.2522 0.5,-0.3331 0.1963,-0.0809 0.4084,-0.1205 0.6346,-0.1222 0.2274,0.002 0.4395,0.0413 0.6358,0.1222 0.1962,0.0809 0.3642,0.1912 0.5,0.3331 0.0927,0.0945 0.1697,0.1997 0.2285,0.3151 0.0588,0.1137 0.1052,0.2539 0.1374,0.4214 0.0323,0.1651 0.0538,0.3738 0.0662,0.6233 0.0125,0.2506 0.0176,0.5588 0.0176,0.9265 z m 10.6885,3.6827 v -7.3661 h -1.1567 l -2.1844,4.5833 -2.228,-4.5833 h -1.1561 v 7.3661 h 1.1561 v -4.9243 l 1.7992,3.59 h 0.8569 l 1.7563,-3.59 v 4.9243 z m 8.6856,0 -2.7952,-7.3661 h -0.9311 l -2.7958,7.3661 h 1.2319 l 0.5249,-1.4791 h 3.0091 l 0.5249,1.4791 z m -2.0775,-2.431 h -2.3456 l 1.1889,-3.2693 z m 8.2903,-3.9311 v -1.004 h -5.3547 v 1.004 h 2.099 v 6.3621 h 1.1567 v -6.3621 z m 7.4006,2.6794 c 0.002,-0.3541 0,-0.6726 -0.009,-0.9593 -0.007,-0.2857 -0.0323,-0.5458 -0.073,-0.7806 -0.043,-0.2341 -0.1143,-0.4519 -0.2161,-0.6499 -0.1018,-0.2002 -0.2449,-0.3897 -0.4304,-0.569 -0.2619,-0.2551 -0.5617,-0.4485 -0.8977,-0.5826 -0.3371,-0.1346 -0.7087,-0.2019 -1.1159,-0.2036 -0.4067,0.002 -0.7766,0.069 -1.1098,0.2036 -0.332,0.1341 -0.6306,0.3275 -0.8925,0.5826 -0.1855,0.1793 -0.3286,0.3688 -0.4322,0.569 -0.1018,0.198 -0.1753,0.4158 -0.2177,0.6499 -0.0447,0.2348 -0.0696,0.4949 -0.0786,0.7806 -0.009,0.2867 -0.0125,0.6052 -0.0108,0.9593 -0.002,0.3535 0.002,0.6725 0.0108,0.9587 0.009,0.2862 0.0339,0.5464 0.0786,0.7806 0.0424,0.2347 0.1159,0.4524 0.2177,0.6499 0.1036,0.2002 0.2467,0.3902 0.4322,0.5695 0.2619,0.2551 0.5605,0.448 0.8925,0.5826 0.3332,0.1346 0.7031,0.2019 1.1098,0.2036 0.4072,-0.002 0.7788,-0.069 1.1159,-0.2036 0.336,-0.1346 0.6358,-0.3275 0.8977,-0.5826 0.1855,-0.1793 0.3286,-0.3693 0.4304,-0.5695 0.1018,-0.1975 0.1731,-0.4152 0.2161,-0.6499 0.0407,-0.2342 0.0662,-0.4944 0.073,-0.7806 0.009,-0.2862 0.0107,-0.6052 0.009,-0.9587 z m -1.1567,0 c 0,0.3671 -0.005,0.6753 -0.0175,0.9259 -0.0125,0.25 -0.034,0.4587 -0.0662,0.6244 -0.0322,0.1669 -0.0786,0.3066 -0.138,0.4203 -0.0588,0.1154 -0.1358,0.2211 -0.2285,0.3156 -0.1352,0.1414 -0.3032,0.2517 -0.4995,0.3326 -0.1962,0.0797 -0.4089,0.121 -0.6357,0.1227 -0.2263,-0.002 -0.4384,-0.043 -0.6352,-0.1227 -0.1963,-0.0809 -0.3643,-0.1912 -0.4995,-0.3326 -0.0927,-0.0945 -0.1696,-0.2002 -0.2285,-0.3156 -0.0588,-0.1137 -0.1052,-0.2534 -0.1374,-0.4203 -0.0328,-0.1657 -0.0543,-0.3744 -0.0668,-0.6244 -0.0124,-0.2506 -0.0175,-0.5588 -0.0175,-0.9259 0,-0.3677 0.005,-0.6759 0.0175,-0.9265 0.0125,-0.2495 0.034,-0.4582 0.0668,-0.6233 0.0322,-0.1675 0.0786,-0.3077 0.1374,-0.4214 0.0589,-0.1154 0.1358,-0.2206 0.2285,-0.3151 0.1352,-0.1419 0.3032,-0.2522 0.4995,-0.3331 0.1968,-0.0809 0.4089,-0.1205 0.6352,-0.1222 0.2268,0.002 0.4395,0.0413 0.6357,0.1222 0.1963,0.0809 0.3643,0.1912 0.4995,0.3331 0.0927,0.0945 0.1697,0.1997 0.2285,0.3151 0.0594,0.1137 0.1058,0.2539 0.138,0.4214 0.0322,0.1651 0.0537,0.3738 0.0662,0.6233 0.0124,0.2506 0.0175,0.5588 0.0175,0.9265 z m 8.7931,3.6827 v -1.0034 h -3.6731 v -6.3627 h -1.1567 v 7.3661 z m 7.3361,-3.6827 c 0.002,-0.3541 0,-0.6726 -0.009,-0.9593 -0.007,-0.2857 -0.0323,-0.5458 -0.073,-0.7806 -0.043,-0.2341 -0.1142,-0.4519 -0.216,-0.6499 -0.1013,-0.2002 -0.2444,-0.3897 -0.4299,-0.569 -0.2625,-0.2551 -0.5622,-0.4485 -0.8977,-0.5826 -0.3376,-0.1346 -0.7087,-0.2019 -1.1165,-0.2036 -0.4067,0.002 -0.776,0.069 -1.1097,0.2036 -0.3321,0.1341 -0.6301,0.3275 -0.8926,0.5826 -0.1855,0.1793 -0.3286,0.3688 -0.4321,0.569 -0.1013,0.198 -0.1748,0.4158 -0.2172,0.6499 -0.0447,0.2348 -0.0696,0.4949 -0.0786,0.7806 -0.009,0.2867 -0.0125,0.6052 -0.0108,0.9593 -0.002,0.3535 0.002,0.6725 0.0108,0.9587 0.009,0.2862 0.0339,0.5464 0.0786,0.7806 0.0424,0.2347 0.1159,0.4524 0.2172,0.6499 0.1035,0.2002 0.2466,0.3902 0.4321,0.5695 0.2625,0.2551 0.5605,0.448 0.8926,0.5826 0.3337,0.1346 0.703,0.2019 1.1097,0.2036 0.4078,-0.002 0.7789,-0.069 1.1165,-0.2036 0.3355,-0.1346 0.6352,-0.3275 0.8977,-0.5826 0.1855,-0.1793 0.3286,-0.3693 0.4299,-0.5695 0.1018,-0.1975 0.173,-0.4152 0.216,-0.6499 0.0407,-0.2342 0.0662,-0.4944 0.073,-0.7806 0.009,-0.2862 0.0107,-0.6052 0.009,-0.9587 z m -1.1567,0 c 0,0.3671 -0.005,0.6753 -0.0175,0.9259 -0.0124,0.25 -0.0339,0.4587 -0.0662,0.6244 -0.0322,0.1669 -0.0786,0.3066 -0.1374,0.4203 -0.0588,0.1154 -0.1358,0.2211 -0.2285,0.3156 -0.1358,0.1414 -0.3038,0.2517 -0.5,0.3326 -0.1963,0.0797 -0.4084,0.121 -0.6358,0.1227 -0.2262,-0.002 -0.4383,-0.043 -0.6346,-0.1227 -0.1963,-0.0809 -0.3648,-0.1912 -0.5,-0.3326 -0.0928,-0.0945 -0.1697,-0.2002 -0.2285,-0.3156 -0.0589,-0.1137 -0.1052,-0.2534 -0.1375,-0.4203 -0.0322,-0.1657 -0.0537,-0.3744 -0.0662,-0.6244 -0.0124,-0.2506 -0.0175,-0.5588 -0.0175,-0.9259 0,-0.3677 0.005,-0.6759 0.0175,-0.9265 0.0125,-0.2495 0.034,-0.4582 0.0662,-0.6233 0.0323,-0.1675 0.0786,-0.3077 0.1375,-0.4214 0.0588,-0.1154 0.1357,-0.2206 0.2285,-0.3151 0.1352,-0.1419 0.3037,-0.2522 0.5,-0.3331 0.1963,-0.0809 0.4084,-0.1205 0.6346,-0.1222 0.2274,0.002 0.4395,0.0413 0.6358,0.1222 0.1962,0.0809 0.3642,0.1912 0.5,0.3331 0.0927,0.0945 0.1697,0.1997 0.2285,0.3151 0.0588,0.1137 0.1052,0.2539 0.1374,0.4214 0.0323,0.1651 0.0538,0.3738 0.0662,0.6233 0.0125,0.2506 0.0175,0.5588 0.0175,0.9265 z m 9.2112,0.8275 v -1.1279 h -2.7851 v 0.952 h 1.6278 v 0.414 c 0.002,0.2359 -0.0288,0.4497 -0.0877,0.6414 -0.0605,0.1895 -0.1606,0.362 -0.2975,0.5176 -0.1516,0.1668 -0.3337,0.2946 -0.5447,0.3823 -0.2126,0.0899 -0.4445,0.1346 -0.6979,0.1346 -0.2269,-0.002 -0.4373,-0.0401 -0.6301,-0.1176 -0.1946,-0.0769 -0.3586,-0.1861 -0.4944,-0.3275 -0.0933,-0.0945 -0.1697,-0.2014 -0.2302,-0.3168 -0.0611,-0.1153 -0.1075,-0.2573 -0.1414,-0.4242 -0.0339,-0.1674 -0.0571,-0.3761 -0.0696,-0.6278 -0.0141,-0.2523 -0.0192,-0.5605 -0.0192,-0.9276 0,-0.3677 0.005,-0.6759 0.0192,-0.9265 0.0125,-0.2495 0.0357,-0.4582 0.0696,-0.6233 0.0339,-0.1675 0.0803,-0.3077 0.1414,-0.4214 0.0605,-0.1154 0.1369,-0.2206 0.2302,-0.3151 0.1358,-0.1419 0.2998,-0.2522 0.4944,-0.3331 0.1928,-0.0809 0.4032,-0.1205 0.6301,-0.1222 0.2856,0 0.5373,0.0515 0.7551,0.1533 0.216,0.1001 0.3965,0.2466 0.539,0.4378 0.1448,0.1917 0.2483,0.4214 0.3122,0.6917 h 1.168 c -0.0543,-0.3173 -0.1521,-0.6137 -0.2969,-0.8897 -0.1443,-0.276 -0.3315,-0.5175 -0.5634,-0.7279 -0.2325,-0.2082 -0.509,-0.3722 -0.8286,-0.4893 -0.3196,-0.1177 -0.6805,-0.1776 -1.0854,-0.1793 -0.4073,0.002 -0.7766,0.069 -1.1098,0.2036 -0.3326,0.1341 -0.6307,0.3275 -0.8925,0.5826 -0.1861,0.1793 -0.3292,0.3688 -0.4327,0.569 -0.1013,0.198 -0.1748,0.4158 -0.2172,0.6499 -0.0447,0.2348 -0.0696,0.4949 -0.0787,0.7806 -0.009,0.2867 -0.0124,0.6052 -0.0107,0.9593 -0.002,0.3535 0.002,0.6725 0.0107,0.9587 0.009,0.2862 0.034,0.5464 0.0787,0.7806 0.0424,0.2347 0.1159,0.4524 0.2172,0.6499 0.1035,0.2002 0.2466,0.3902 0.4327,0.5695 0.2635,0.2551 0.5633,0.448 0.901,0.5826 0.3377,0.1346 0.7031,0.2019 1.1013,0.2036 0.4032,0.002 0.7799,-0.0639 1.1335,-0.1979 0.3535,-0.1329 0.677,-0.3467 0.966,-0.6397 0.1675,-0.1714 0.3015,-0.3569 0.4011,-0.5572 0.1001,-0.2019 0.173,-0.4259 0.2177,-0.6759 0.0453,-0.2489 0.0685,-0.5311 0.0668,-0.8467 z m 3.9525,2.8552 v -7.3661 h -1.1572 v 7.3661 z m 8.6964,0 -2.7953,-7.3661 h -0.9315 l -2.7959,7.3661 h 1.2319 l 0.5249,-1.4791 h 3.0097 l 0.5243,1.4791 z m -2.078,-2.431 h -2.3457 l 1.189,-3.2693 z" />
    <path
       id="path10"
       style="fill:#d4006a;fill-rule:evenodd"
       d="m 254.6984,105.5076 c 0.03,1.1844 0.7913,1.6787 1.5481,2.0758 2.0204,1.0605 4.1726,1.3196 6.3977,0.7975 0.7551,-0.1787 1.6743,-0.4796 1.5125,-1.3671 -0.0928,-0.5124 -0.8818,-1.1092 -1.4723,-1.2839 -2.5883,-0.7664 -5.2309,-0.6041 -7.986,-0.2223 z m 140.9854,19.1038 c 0.2393,0 0.3914,0.0339 0.5221,-0.004 3.5798,-1.0379 6.9435,-2.5481 9.5986,-5.2133 1.0068,-1.0102 1.7613,-2.3897 2.2771,-3.7348 0.5521,-1.4383 -0.526,-2.3965 -2.0181,-1.9463 -0.6363,0.1929 -1.2551,0.5481 -1.8009,0.9435 -3.4724,2.5108 -6.0448,5.8383 -8.3882,9.3667 -0.0922,0.1385 -0.108,0.3292 -0.1906,0.5882 z M 267.2009,85.7024 c -0.1222,-0.271 -0.1527,-0.3858 -0.2189,-0.4701 -0.1889,-0.2392 -0.3756,-0.4796 -0.5905,-0.6928 -2.4118,-2.3915 -5.2716,-4.0199 -8.6269,-4.5346 -2.2172,-0.3394 -4.4684,-0.2387 -6.5306,0.9299 -2.4876,1.4095 -3.6783,4.0204 -3.176,6.8344 0.4729,2.642 2.1635,4.4599 4.06,6.1307 0.1725,0.151 0.8592,0.0119 1.064,-0.2132 2.7715,-3.0561 6.1935,-5.1025 10.0024,-6.559 1.3009,-0.4971 2.6245,-0.9332 4.0165,-1.4253 z m -10.3362,10.8503 c 0.0487,0.1442 0.0967,0.289 0.1448,0.4361 1.1488,0.4479 2.2716,0.9836 3.4497,1.3292 5.0765,1.4921 10.2621,2.0385 15.5207,1.3614 3.1872,-0.4117 6.258,-1.2992 8.7512,-3.4882 1.6324,-1.4332 2.4447,-3.263 2.1471,-5.4661 -0.3456,-2.5606 -2.1431,-3.8377 -4.3541,-4.6149 -3.4197,-1.2014 -6.8734,-0.8739 -10.305,0.0017 -1.9554,0.4983 -1.9237,0.5102 -1.2619,2.4361 0.6374,1.8417 1.0543,3.7252 0.854,5.3321 -0.7715,-1.7132 -1.6487,-3.6652 -2.5339,-5.6132 -0.3937,-0.8677 -0.9904,-0.9237 -1.7291,-0.4174 -1.8773,1.2828 -3.8581,2.4395 -5.615,3.8716 -1.8032,1.4718 -3.3875,3.2088 -5.0685,4.8316 z m 27.1894,17.4856 c -1.7664,1.3371 -3.4147,2.6505 -5.1324,3.8677 -1.6601,1.1787 -3.2914,2.4485 -5.2349,3.1267 -0.0746,-0.1086 -0.1487,-0.2189 -0.2228,-0.3297 0.3954,-0.3049 0.789,-0.616 1.1906,-0.9152 3.3677,-2.53 6.7456,-5.047 10.0946,-7.6014 0.5323,-0.4072 0.926,-0.9977 1.3977,-1.4921 1.2709,-1.3247 2.7133,-2.3292 4.6511,-2.2907 0.2737,0.006 0.5447,0.1866 0.8156,0.285 -0.1369,0.2908 -0.1934,0.6867 -0.4197,0.8507 -0.9197,0.6675 -1.8518,1.3383 -2.8496,1.8705 -1.6312,0.8711 -2.0707,2.1726 -1.9808,3.956 0.1918,3.7993 0.3219,7.6347 -1.9734,10.9945 -0.6607,0.9661 -1.4441,1.8496 -2.1143,2.9627 0.5475,-0.2172 1.1143,-0.3999 1.6442,-0.655 4.8898,-2.3575 8.9289,-5.8818 12.9126,-9.4747 1.638,-1.4757 3.2812,-2.944 4.9356,-4.3999 0.2472,-0.2189 0.5724,-0.3496 0.8597,-0.5221 -0.0865,-0.151 -0.173,-0.3054 -0.259,-0.4559 h -4.922 c -0.0142,-0.1465 -0.0283,-0.2913 -0.0425,-0.4378 0.6969,-0.1408 1.418,-0.4723 2.0866,-0.388 2.9056,0.3637 4.7614,-0.9253 6.6042,-3.1307 3.2093,-3.8372 6.7744,-7.3898 10.3248,-10.9244 1.0657,-1.0622 2.5391,-1.7551 3.9113,-2.4542 0.7545,-0.3852 1.6725,-0.3592 2.5323,0.2754 -4.9,5.0442 -9.5347,10.1812 -13.8096,15.8668 2.7551,0.3315 5.3536,-0.1991 7.8796,0.2811 0.0198,0.1624 0.0379,0.3253 0.0577,0.4882 -0.4129,0.0944 -0.8247,0.263 -1.2387,0.2709 -2.1663,0.0419 -4.3377,-0.0158 -6.4979,0.0945 -0.591,0.0316 -1.3902,0.3733 -1.7008,0.8376 -2.5583,3.8118 -5.0402,7.6749 -7.5024,11.5511 -0.3772,0.5962 -0.6046,1.3151 -0.7715,2.008 -0.3031,1.2732 0.5283,2.1867 1.7891,1.8354 1.1527,-0.319 2.3558,-0.763 3.2981,-1.4678 3.008,-2.2494 5.8893,-4.6675 8.8537,-6.9763 3.1426,-2.4525 6.2891,-4.9 9.5018,-7.2598 1.7354,-1.2771 3.7676,-1.7613 5.934,-1.5526 0.3473,0.0323 0.6866,0.1465 1.3156,0.2873 -0.7857,0.9435 -1.4158,1.6771 -2.0159,2.4317 -2.7913,3.5045 -5.5951,7.0006 -8.3423,10.5392 -0.5498,0.707 -0.9497,1.5588 -1.2772,2.3999 -0.4276,1.1046 0.0464,1.8037 1.1889,1.6369 0.9441,-0.1369 1.9842,-0.4282 2.7292,-0.9881 3.0605,-2.3033 6.0544,-4.6992 9.0143,-7.1314 2.9039,-2.3858 5.6873,-4.9198 8.6206,-7.2654 1.5141,-1.2093 3.2613,-2.1109 5.2981,-2.1488 2.4073,-0.0447 3.5963,1.5419 2.5516,3.7331 -0.823,1.7286 -2.0153,3.2936 -3.1206,4.8757 -1.1946,1.7132 -2.4819,3.362 -3.7189,5.0447 -0.1465,0.1986 -0.241,0.4401 -0.1889,0.8598 0.4479,-0.3417 0.8976,-0.681 1.3456,-1.0244 4.6086,-3.5345 9.1347,-7.1896 13.8701,-10.5471 1.8111,-1.2856 4.0566,-2.0323 6.1992,-2.7489 0.9576,-0.3196 2.1907,-0.1284 3.2184,0.1363 1.3439,0.3473 1.9865,1.6912 1.4683,2.9882 -0.4434,1.1109 -1.0582,2.1969 -1.793,3.1392 -1.7794,2.2749 -3.6788,4.4537 -5.5165,6.6811 -0.3671,0.4434 -0.6844,0.9276 -1.026,1.3954 0.0905,0.0848 0.1827,0.1691 0.2732,0.2551 0.7568,-0.6443 1.4904,-1.3213 2.2794,-1.9237 4.4034,-3.366 8.7332,-6.8378 13.2769,-10.003 1.8218,-1.271 4.1013,-1.9073 6.2178,-2.7172 0.6363,-0.2427 1.4356,-0.1946 2.1386,-0.1047 2.0346,0.2551 2.9899,1.814 2.1833,3.6913 -0.4745,1.1007 -1.1691,2.1306 -1.892,3.095 -1.892,2.5221 -3.8762,4.9764 -5.7755,7.4922 -0.4503,0.5945 -0.8253,1.2936 -1.0425,2.0023 -0.2732,0.8915 0.3332,1.538 1.2512,1.366 0.6946,-0.1307 1.3875,-0.3999 2.0243,-0.7172 3.7812,-1.892 6.9232,-4.6528 10.0545,-7.4283 4.4843,-3.978 9.4923,-7.1115 15.2135,-8.9464 1.5724,-0.504 3.3428,-0.6369 5.0018,-0.5464 1.7455,0.0939 2.5803,1.7331 2.0849,3.4559 -0.422,1.4644 -1.4322,2.4859 -2.581,3.3881 -2.8168,2.211 -6.0877,3.5527 -9.3977,4.7999 -1.3117,0.4954 -2.6551,0.9072 -3.9877,1.3433 -1.1748,0.3829 -1.8795,1.8213 -1.6731,3.4441 0.1771,1.375 1.0809,2.3677 2.422,2.1912 1.8552,-0.2455 3.7569,-0.5786 5.4905,-1.258 4.5221,-1.7692 8.1783,-4.9056 11.8514,-7.9826 0.3637,-0.3048 0.7653,-0.5599 1.1482,-0.8388 l 0.2495,0.2127 c -0.1505,0.2489 -0.2534,0.556 -0.4621,0.741 -3.7371,3.3015 -7.5539,6.4865 -12.1167,8.637 -3.0442,1.4361 -6.2009,2.1816 -9.5924,1.9661 -3.4701,-0.2183 -5.288,-2.4593 -4.2693,-5.7535 0.4932,-1.5945 1.4978,-3.0323 2.2953,-4.5306 0.1906,-0.3552 0.4734,-0.6601 0.7149,-0.9899 -0.0667,-0.078 -0.1352,-0.1549 -0.2013,-0.233 -0.3168,0.2528 -0.6364,0.504 -0.9514,0.7613 -2.9888,2.4599 -5.9057,5.0165 -8.9905,7.3503 -2.0306,1.5379 -4.3717,2.6063 -6.9363,3.0221 -0.5944,0.0961 -1.2166,0.1527 -1.8111,0.0865 -2.129,-0.2392 -3.0306,-1.6284 -2.4576,-3.6974 0.7387,-2.6647 2.642,-4.5804 4.3027,-6.6433 1.478,-1.8331 3.0566,-3.5843 4.5826,-5.3796 0.2715,-0.3173 0.5544,-0.6369 0.7512,-0.9983 0.474,-0.8677 0.0481,-1.5826 -0.9316,-1.4616 -0.6968,0.086 -1.4022,0.3434 -2.0402,0.6562 -4.8858,2.3959 -9.0912,5.7834 -13.2762,9.1998 -2.883,2.3535 -5.7207,4.7733 -8.6829,7.0267 -0.8111,0.6182 -1.9757,0.9361 -3.0181,1.052 -1.4899,0.1669 -1.9192,-0.4858 -1.1205,-1.7268 1.9276,-2.9961 3.9339,-5.9503 6.0346,-8.8299 1.1584,-1.5905 2.5764,-2.9927 3.8637,-4.4927 0.3456,-0.4016 0.7229,-0.8094 0.9361,-1.2812 0.1522,-0.3371 0.2206,-0.9259 0.0317,-1.1504 -0.2387,-0.2789 -0.8337,-0.4904 -1.1821,-0.396 -0.9463,0.2551 -1.8847,0.6064 -2.7523,1.0623 -4.1986,2.1991 -7.9051,5.1092 -11.554,8.0997 -3.1454,2.5764 -6.3061,5.1347 -9.4487,7.715 -0.9615,0.7896 -2.0401,1.1171 -3.2749,1.0487 -1.2755,-0.0685 -1.6527,-0.5866 -0.9621,-1.6471 2.1188,-3.2427 4.284,-6.4566 6.491,-9.6393 0.9486,-1.3733 2.0516,-2.6386 3.0714,-3.9639 0.2534,-0.3297 0.5141,-0.677 0.655,-1.0583 0.1046,-0.2839 0.151,-0.7754 -0.0119,-0.9242 -0.2274,-0.2126 -0.7336,-0.3574 -1.0063,-0.2472 -0.8037,0.3236 -1.6448,0.6709 -2.3037,1.215 -3.1319,2.5866 -6.2224,5.2235 -9.3034,7.8746 -3.1646,2.7251 -6.2048,5.6149 -9.9962,7.5069 -1.6646,0.8292 -3.396,1.2885 -5.271,1.1403 -1.892,-0.1465 -3.1007,-1.5662 -2.5204,-3.3457 0.5079,-1.5583 1.1793,-3.1691 2.1709,-4.4457 2.164,-2.784 4.5804,-5.3723 6.8937,-8.0375 0.1692,-0.1946 0.3496,-0.3773 0.3994,-0.7851 -0.3954,0.2048 -0.8349,0.3496 -1.1765,0.6205 -2.7031,2.1544 -5.3774,4.3417 -8.0765,6.5012 -3.0527,2.4413 -6.0386,4.9758 -9.2066,7.2575 -2.1794,1.5662 -4.7156,2.4299 -7.503,2.241 -1.974,-0.1329 -3.0277,-1.4197 -2.6725,-3.3621 0.5656,-3.0865 2.349,-5.5668 4.0442,-8.0883 0.5198,-0.7755 1.0662,-1.5329 1.6024,-2.2959 -0.0685,-0.0741 -0.1347,-0.1487 -0.2048,-0.2211 -0.3331,0.2573 -0.6827,0.4943 -0.9983,0.7754 -3.4882,3.1087 -6.9034,6.3056 -10.9482,8.7213 -3.8535,2.3015 -7.9056,4.0912 -12.3984,4.5748 -1.7466,0.1872 -3.5934,0.155 -5.3089,-0.2003 -2.8937,-0.5967 -4.4299,-3.1912 -3.9576,-6.1251 0.0435,-0.2737 0.0577,-0.5469 0.1221,-1.1448 -1.2749,1.0198 -2.2896,1.8479 -3.3235,2.6567 -4.3876,3.4379 -9.1693,6.1133 -14.6711,7.2717 -4.5566,0.9604 -9.1291,1.0102 -13.5953,-0.5023 -5.7755,-1.9537 -8.1528,-6.719 -6.3253,-12.5472 1.2749,-4.0623 4.0527,-6.986 7.3757,-9.4441 4.2778,-3.1675 9.1048,-5.1528 14.2372,-6.421 1.0204,-0.2528 1.1975,-0.5458 0.8841,-1.6001 -0.8637,-2.9079 -0.1787,-5.6573 1.4237,-8.1495 0.6046,-0.9412 0.5022,-1.4298 -0.3315,-2.1465 -2.1307,-1.8377 -3.6545,-4.0985 -3.8609,-6.9945 -0.2975,-4.159 2.931,-7.6618 7.2286,-7.9967 5.6387,-0.44 10.3497,1.5164 14.2859,5.478 0.474,0.478 0.8858,0.6488 1.5866,0.5447 4.6064,-0.6991 9.2371,-1.0848 13.7066,0.6183 1.4158,0.5384 2.7936,1.4055 3.9187,2.4236 1.8512,1.6771 1.9994,4.2456 0.6125,6.3384 -1.5187,2.293 -3.8202,3.5278 -6.2874,4.5018 -4.8021,1.8965 -9.7903,1.8659 -14.8164,1.4287 -3.5425,-0.3116 -6.9504,-1.1352 -10.2168,-2.5526 -0.2913,-0.1267 -0.952,0.0158 -1.107,0.2528 -1.1301,1.7387 -1.9197,3.6104 -1.8348,5.7575 0.0299,0.7528 0.2607,0.9536 1.0458,0.8535 2.8315,-0.3654 5.6641,-0.4497 8.4622,0.3116 1.0781,0.293 2.2388,0.7664 2.2716,1.9299 0.0356,1.2472 -1.2133,1.6143 -2.2716,1.853 -3.9966,0.8982 -7.9662,0.681 -11.4323,-1.5164 -1.5764,-0.9978 -2.5747,-0.8207 -3.9339,-0.0656 -5.448,3.0243 -10.2275,6.7834 -13.0522,12.4849 -0.8897,1.7992 -1.4622,3.8457 -1.7438,5.8423 -0.56,3.9797 2.3054,7.5097 6.5267,8.2535 5.3134,0.9333 10.2371,-0.41 14.9527,-2.78 4.0702,-2.0464 7.6523,-4.7976 11.0307,-7.8254 0.8671,-0.7777 1.6041,-1.7132 2.5301,-2.4038 0.5401,-0.3999 1.3212,-0.5385 2.0158,-0.6426 0.8852,-0.1306 1.8253,0.1442 2.0702,1.026 0.2008,0.7144 0.1126,1.6828 -0.237,2.331 -0.366,0.681 -1.1872,1.1227 -1.8207,1.655 -0.6069,0.5085 -1.2896,0.944 -1.836,1.5102 -0.9214,0.9519 -1.1827,2.1465 -0.7071,3.3716 0.5125,1.3157 1.7478,1.6313 2.9939,1.689 1.5486,0.0724 2.8801,-0.5962 4.0651,-1.534 2.4859,-1.9638 4.0346,-4.6211 5.3015,-7.4464 1.245,-2.7692 2.3892,-5.5849 3.5719,-8.3808 0.0385,-0.0882 0.006,-0.2064 0.006,-0.4513 z" />
    <path
       id="path12"
       style="fill:#d4006a;fill-rule:evenodd"
       d="m 333.6058,101.2586 c 0.0538,-2.8982 2.9639,-4.8598 5.6144,-3.7698 0.8354,0.3439 0.8473,1.0809 0.5141,1.7115 -0.345,0.6528 -0.8207,1.301 -1.3953,1.7529 -0.8513,0.6708 -1.7953,1.2676 -2.7795,1.7172 -1.4701,0.6686 -1.9836,0.2472 -1.9537,-1.4118 z" />
    <path
       id="path14"
       style="fill:#9c9e9f;fill-rule:evenodd"
       d="m 192.8387,136.4374 c 0.426,-1.922 1.4056,-3.4938 2.9701,-4.7031 1.7653,-1.3615 3.8038,-2.1126 5.9447,-2.5866 2.4406,-0.5419 4.8988,-1.0017 7.3514,-1.5017 0.2551,-0.0549 0.5022,-0.1409 0.8229,-0.2314 -0.1284,-0.1125 -0.1928,-0.1968 -0.2788,-0.2404 -1.4983,-0.7675 -2.125,-2.0509 -2.2489,-3.6635 -0.0849,-1.0945 -0.2297,-2.1844 -0.3377,-3.2795 -0.1024,-1.0141 -0.6227,-1.3772 -1.659,-1.4638 -0.3393,-0.0283 -0.6646,0 -0.849,-0.3196 -0.2273,-0.3953 -0.5101,-0.7952 -0.5944,-1.2251 -0.1431,-0.7308 0.2409,-1.3151 0.7913,-1.7868 0.0899,-0.0786 0.1827,-0.1567 0.2364,-0.3258 -0.2528,0.0803 -0.5,0.2053 -0.7591,0.2353 -1.2047,0.1346 -2.3184,-0.0645 -3.2608,-0.9095 -0.6023,-0.5424 -0.5441,-1.2834 -0.6663,-1.9746 -0.0543,-0.3049 -0.0803,-0.6205 -0.1815,-0.9078 -0.375,-1.0662 -0.9633,-1.4435 -2.1002,-1.5079 -0.7732,-0.0419 -1.5583,-0.1041 -2.3049,-0.2891 -1.2636,-0.3133 -1.7998,-1.1968 -1.5045,-2.4582 0.4836,-2.0662 1.0786,-4.1064 1.5283,-6.1794 0.3252,-1.4943 0.5498,-3.0125 0.7127,-4.5323 0.1329,-1.241 -0.5261,-2.2133 -1.4237,-2.9983 -0.4757,-0.4152 -1.0504,-0.7167 -1.5628,-1.0945 -0.2325,-0.1686 -0.5057,-0.3552 -0.6165,-0.6001 -0.9916,-2.1749 -1.9107,-4.3819 -2.3853,-6.74 -0.4474,-2.2268 -0.6821,-4.4701 -0.4756,-6.745 0.006,-0.0605 -0.008,-0.1227 -0.0136,-0.185 h -15.3442 v 58.5972 h 18.1808 c -0.0238,-0.082 -0.0119,-0.2048 0.0282,-0.3835 z" />
    <path
       id="path16"
       style="fill:#d4006a;fill-rule:evenodd"
       d="m 192.9677,78.2243 c -0.6109,4.7772 0.0741,9.3644 2.09,13.7401 0.203,0.4417 0.5865,0.8229 0.9463,1.1685 0.6023,0.5804 1.2805,1.0821 1.8795,1.6669 0.9141,0.8937 1.1403,2.0363 0.8852,3.2269 -0.6126,2.8462 -1.2907,5.676 -1.944,8.5114 -0.0538,0.2404 -0.1279,0.4814 -0.1482,0.7269 -0.1069,1.2811 0.5882,2.1018 1.9638,2.2975 0.6148,0.0882 1.2376,0.1906 1.8541,0.1663 1.1663,-0.0424 1.7551,1.0062 1.8734,1.888 0.0497,0.353 0.0701,0.7088 0.1159,1.0623 0.0922,0.711 0.5238,1.1985 1.1245,1.5102 0.7873,0.4033 1.9502,0.7828 2.9163,0.289 -0.121,0.1448 -0.177,0.2212 -0.2393,0.2891 -0.6148,0.6787 -0.7307,1.7251 -0.2669,2.5045 0.1906,0.3207 0.4496,0.5662 0.8575,0.5481 1.293,-0.0543 1.7551,0.4056 1.8716,1.7353 0.1103,1.2608 0.2851,2.5182 0.4615,3.775 0.0843,0.5967 0.4418,1.0503 0.922,1.4078 1.2048,0.8914 2.5787,1.3473 4.0578,1.5164 0.2771,0.0345 0.5526,0.0662 0.8637,0.1986 -1.4593,0.4683 -2.8955,1.0203 -4.3791,1.3857 -1.8677,0.4599 -3.7817,0.7331 -5.6613,1.1505 -2.1244,0.47 -4.1624,1.181 -5.9458,2.4763 -1.7212,1.2512 -2.8371,2.8982 -3.2331,4.9944 -0.0299,0.1646 -0.0848,0.2755 -0.1549,0.362 h 24.0796 V 78.2243 Z" />
  </g>
</svg>
